<svg height="84.032" viewBox="0 0 87.672 84.032" width="87.672" xmlns="http://www.w3.org/2000/svg"><path d="m45.265 3.525 9.311 18.867a4.444 4.444 0 0 0 3.348 2.432l20.822 3.026a4.445 4.445 0 0 1 2.464 7.582l-15.066 14.686a4.446 4.446 0 0 0 -1.278 3.935l3.556 20.737a4.447 4.447 0 0 1 -6.451 4.688l-18.623-9.79a4.451 4.451 0 0 0 -4.138 0l-18.623 9.79a4.446 4.446 0 0 1 -6.451-4.688l3.556-20.737a4.446 4.446 0 0 0 -1.278-3.935l-15.066-14.686a4.445 4.445 0 0 1 2.464-7.582l20.822-3.026a4.444 4.444 0 0 0 3.348-2.432l9.311-18.867a4.444 4.444 0 0 1 7.972 0z" fill="#fffac9" stroke="#1f1f1f" stroke-width="5" transform="translate(2.557 1.453)"/></svg>