<svg xmlns="http://www.w3.org/2000/svg" width="87.672" height="84.032" viewBox="0 0 87.672 84.032">
  <path id="star-svgrepo-com" d="M45.265,3.525l9.311,18.867a4.444,4.444,0,0,0,3.348,2.432L78.746,27.85a4.445,4.445,0,0,1,2.464,7.582L66.144,50.118a4.446,4.446,0,0,0-1.278,3.935l3.556,20.737a4.447,4.447,0,0,1-6.451,4.688l-18.623-9.79a4.451,4.451,0,0,0-4.138,0l-18.623,9.79a4.446,4.446,0,0,1-6.451-4.688l3.556-20.737a4.446,4.446,0,0,0-1.278-3.935L1.348,35.432A4.445,4.445,0,0,1,3.812,27.85l20.822-3.026a4.444,4.444,0,0,0,3.348-2.432L37.293,3.525A4.444,4.444,0,0,1,45.265,3.525Z" transform="translate(2.557 1.453)" fill="#fffac9" stroke="#1f1f1f" stroke-width="5"/>
</svg>
